<?xml version="1.0" encoding="UTF-8" standalone="no"?>
<svg
   xmlns:dc="http://purl.org/dc/elements/1.1/"
   xmlns:cc="http://creativecommons.org/ns#"
   xmlns:rdf="http://www.w3.org/1999/02/22-rdf-syntax-ns#"
   xmlns:svg="http://www.w3.org/2000/svg"
   xmlns="http://www.w3.org/2000/svg"
   width="210mm"
   height="297mm"
   viewBox="0 0 210 297"
   version="1.1"
   id="svg3342">
  <defs
     id="defs3336" />
  <metadata
     id="metadata3339">
    <rdf:RDF>
      <cc:Work
         rdf:about="">
        <dc:format>image/svg+xml</dc:format>
        <dc:type
           rdf:resource="http://purl.org/dc/dcmitype/StillImage" />
        <dc:title></dc:title>
      </cc:Work>
    </rdf:RDF>
  </metadata>
  <g
     id="layer1">
    <path
       style="fill:#000000;stroke:none;stroke-width:0.109419px;stroke-linecap:butt;stroke-linejoin:miter;stroke-opacity:1"
       d="m 61.595944,181.10148 c 0,0 -13.55139,-14.56867 -5.75941,-28.12758 7.79197,-13.27041 21.30317,-14.72803 20.58993,-25.67532 -0.48558,-7.45304 -8.72113,-16.09265 -16.16751,-15.51344 -15.15628,1.1789 -31.355469,18.68686 -27.62886,36.2846 3.726608,17.5977 28.96585,33.03174 28.96585,33.03174 z"
       id="path3098-3" />
    <path
       style="fill:#000000;stroke:none;stroke-width:0.109419px;stroke-linecap:butt;stroke-linejoin:miter;stroke-opacity:1"
       d="m 73.166574,186.02143 c 0,0 -4.92413,-14.95046 2.79584,-17.08217 7.46,-2.05991 10.30175,-6.78394 9.37448,-11.69265 -1.09872,-5.81634 -9.82737,-9.83732 -15.39633,-8.84789 -7.17563,1.27487 -12.78332,10.11445 -10.88586,18.90539 1.89746,8.79097 14.11187,18.71732 14.11187,18.71732 z"
       id="path3094-8" />
    <path
       style="fill:#000000;stroke:none;stroke-width:0.0614756px;stroke-linecap:butt;stroke-linejoin:miter;stroke-opacity:1"
       d="m 86.309924,168.88265 c 0,0 7.61369,-8.18524 3.23585,-15.80316 -4.37782,-7.45584 -11.96894,-8.27479 -11.56821,-14.42537 0.27282,-4.18744 4.89987,-9.04148 9.08353,-8.71605 8.51538,0.66235 17.616706,10.49899 15.522956,20.38607 -2.09375,9.88708 -16.274126,18.55851 -16.274126,18.55851 z"
       id="path3098-3-7" />
    <path
       style="fill:#000000;stroke:none;stroke-width:0.109419px;stroke-linecap:butt;stroke-linejoin:miter;stroke-opacity:1"
       d="m 159.14215,117.34527 c 0,0 13.55139,14.56867 5.75941,28.12757 -7.79197,13.27041 -21.30318,14.72804 -20.58994,25.67532 0.48559,7.45305 8.72114,16.09266 16.16752,15.51345 15.15628,-1.17891 31.35547,-18.68687 27.62885,-36.2846 -3.7266,-17.5977 -28.96584,-33.03174 -28.96584,-33.03174 z"
       id="path3098-3-0" />
    <path
       style="fill:#000000;stroke:none;stroke-width:0.109419px;stroke-linecap:butt;stroke-linejoin:miter;stroke-opacity:1"
       d="m 147.57152,112.42532 c 0,0 4.92413,14.95045 -2.79585,17.08217 -7.45999,2.05991 -10.30174,6.7839 -9.37447,11.69265 1.09872,5.81634 9.82737,9.83732 15.39633,8.84789 7.17563,-1.27487 12.78332,-10.11445 10.88586,-18.90539 -1.89746,-8.79098 -14.11187,-18.71732 -14.11187,-18.71732 z"
       id="path3094-8-6" />
    <path
       style="fill:#000000;stroke:none;stroke-width:0.0614756px;stroke-linecap:butt;stroke-linejoin:miter;stroke-opacity:1"
       d="m 134.42817,129.5641 c 0,0 -7.61369,8.18523 -3.23585,15.80315 4.37782,7.45582 11.96894,8.27476 11.56821,14.42537 -0.27281,4.18742 -4.89987,9.04148 -9.08353,8.71605 -8.51539,-0.66234 -17.61671,-10.49898 -15.52296,-20.38606 2.09376,-9.88708 16.27413,-18.55851 16.27413,-18.55851 z"
       id="path3098-3-7-9" />
  </g>
</svg>
