<?xml version="1.0" encoding="UTF-8" standalone="no"?>
<!-- Created with Inkscape (http://www.inkscape.org/) -->

<svg
   xmlns:dc="http://purl.org/dc/elements/1.1/"
   xmlns:cc="http://creativecommons.org/ns#"
   xmlns:rdf="http://www.w3.org/1999/02/22-rdf-syntax-ns#"
   xmlns:svg="http://www.w3.org/2000/svg"
   xmlns="http://www.w3.org/2000/svg"
   xmlns:sodipodi="http://sodipodi.sourceforge.net/DTD/sodipodi-0.dtd"
   xmlns:inkscape="http://www.inkscape.org/namespaces/inkscape"
   width="100"
   height="61.669998"
   viewBox="0 0 26.458333 16.316854"
   version="1.1"
   id="svg8"
   sodipodi:docname="logo.svg"
   inkscape:version="0.92.4 (5da689c313, 2019-01-14)">
  <defs
     id="defs2" />
  <sodipodi:namedview
     id="base"
     pagecolor="#ffffff"
     bordercolor="#666666"
     borderopacity="1.0"
     inkscape:pageopacity="0.0"
     inkscape:pageshadow="2"
     inkscape:zoom="2.8"
     inkscape:cx="25.174911"
     inkscape:cy="29.027926"
     inkscape:document-units="mm"
     inkscape:current-layer="layer1"
     showgrid="false"
     units="px"
     inkscape:window-width="1280"
     inkscape:window-height="737"
     inkscape:window-x="-8"
     inkscape:window-y="-8"
     inkscape:window-maximized="1" />
  <metadata
     id="metadata5">
    <rdf:RDF>
      <cc:Work
         rdf:about="">
        <dc:format>image/svg+xml</dc:format>
        <dc:type
           rdf:resource="http://purl.org/dc/dcmitype/StillImage" />
        <dc:title></dc:title>
      </cc:Work>
    </rdf:RDF>
  </metadata>
  <g
     inkscape:label="Layer 1"
     inkscape:groupmode="layer"
     id="layer1"
     transform="translate(0,-280.68313)">
    <path
       inkscape:connector-curvature="0"
       id="path830"
       d="m 7.7033431,294.96987 c -1.2393591,-0.3412 -1.9911369,-0.78673 -2.9566755,-1.75227 -1.2795229,-1.27952 -1.6834381,-2.32834 -1.6919449,-4.39336 -0.00556,-1.34573 0.050497,-1.67088 0.4224228,-2.45 1.1492363,-2.40758 3.2642023,-3.76418 5.8483469,-3.75134 1.3217286,0.006 2.4698166,0.38922 3.6914516,1.23036 2.520165,1.73524 3.334336,5.02418 1.946116,7.8616 -1.219328,2.49222 -4.571306,3.99514 -7.2597169,3.25501 z m -1.1433344,-5.00228 0.081666,-1.22502 0.7747668,1.18418 0.7747607,1.18418 h 0.8216895 0.8216897 l -0.044757,-2.72814 -0.044757,-2.72813 -0.7692047,-0.05 -0.7692046,-0.05 -0.047473,1.33862 -0.047473,1.33862 -0.8240048,-1.2963 -0.8240046,-1.2963 -0.8093309,0.0204 -0.809337,0.0204 -0.023829,2.67474 c -0.013087,1.47111 -0.00185,2.71149 0.02531,2.75641 0.027039,0.045 0.4052303,0.0817 0.8404934,0.0817 h 0.7913809 z m 8.3300223,-1.07393 v -2.19274 H 14.07336 13.256689 v 1.21163 c 0,1.46568 -0.08688,1.72837 -0.571667,1.72837 -0.484779,0 -0.571667,-0.26269 -0.571667,-1.72837 v -1.21163 h -0.816673 -0.816663 l 0.0056,1.59249 c 0.0091,2.48797 0.306188,2.78329 2.806469,2.7892 l 1.597751,0.003 z m 4.900005,3.83382 c 0,-0.0754 0.178203,-0.54019 0.396009,-1.03267 l 0.395999,-0.89545 -0.710534,-1.68615 c -0.895725,-2.12562 -0.892539,-2.10977 -0.439127,-2.18627 0.628221,-0.10598 0.923628,0.18764 1.320847,1.31279 0.40063,1.13483 0.577487,1.30909 0.717571,0.70702 0.04704,-0.20213 0.221682,-0.72724 0.388117,-1.1669 0.278834,-0.73661 0.350598,-0.80433 0.913537,-0.86208 0.336008,-0.0344 0.610928,-0.0101 0.610928,0.0542 0,0.1742 -2.293934,5.50737 -2.429789,5.64901 -0.170085,0.17732 -1.163558,0.26819 -1.163558,0.10642 z m -2.730642,-1.97693 c -0.46966,-0.22674 -0.723646,-1.01893 -0.641777,-2.0017 0.05345,-0.64155 0.01371,-0.79593 -0.220785,-0.85725 -0.344159,-0.09 -0.391909,-0.84929 -0.06136,-0.97613 0.123521,-0.0474 0.224589,-0.25773 0.224589,-0.4674 0,-0.4803 0.114316,-0.5448 0.784915,-0.44284 0.470309,0.0715 0.533486,0.13744 0.490001,0.51138 -0.04198,0.36128 0.01414,0.4293 0.354166,0.4293 0.323225,0 0.411137,0.0897 0.439331,0.44852 0.02748,0.34926 -0.04951,0.4698 -0.347812,0.54466 -0.450233,0.11302 -0.543493,0.39013 -0.449055,1.33433 0.06044,0.60411 0.120181,0.69417 0.460611,0.69417 0.325755,0 0.39118,0.0819 0.39118,0.49 0,0.44619 -0.04748,0.48901 -0.530837,0.47894 -0.291958,-0.006 -0.693872,-0.0898 -0.893139,-0.18598 z"
       style="fill:#fe9200;fill-opacity:1;stroke-width:0.16333374" />
  </g>
</svg>
