<?xml version="1.0" encoding="UTF-8" standalone="no"?>
<svg
   xmlns:dc="http://purl.org/dc/elements/1.1/"
   xmlns:cc="http://creativecommons.org/ns#"
   xmlns:rdf="http://www.w3.org/1999/02/22-rdf-syntax-ns#"
   xmlns:svg="http://www.w3.org/2000/svg"
   xmlns="http://www.w3.org/2000/svg"
   xmlns:sodipodi="http://sodipodi.sourceforge.net/DTD/sodipodi-0.dtd"
   xmlns:inkscape="http://www.inkscape.org/namespaces/inkscape"
   sodipodi:docname="nuty.svg"
   inkscape:version="0.92.4 (5da689c313, 2019-01-14)"
   inkscape:export-ydpi="261.55499"
   inkscape:export-xdpi="261.55499"
   inkscape:export-filename="D:\Nuty\Logo\logo bolong 4.png"
   id="svg8"
   version="1.1"
   viewBox="0 0 26.458333 16.316855"
   height="61.669998"
   width="100">
  <defs
     id="defs2" />
  <sodipodi:namedview
     inkscape:window-maximized="1"
     inkscape:window-y="-8"
     inkscape:window-x="-8"
     inkscape:window-height="737"
     inkscape:window-width="1280"
     units="px"
     showgrid="false"
     inkscape:document-rotation="0"
     inkscape:current-layer="layer1"
     inkscape:document-units="mm"
     inkscape:cy="-67.381585"
     inkscape:cx="124.55005"
     inkscape:zoom="2"
     inkscape:pageshadow="2"
     inkscape:pageopacity="0.0"
     borderopacity="1.0"
     bordercolor="#666666"
     pagecolor="#ffffff"
     id="base" />
  <metadata
     id="metadata5">
    <rdf:RDF>
      <cc:Work
         rdf:about="">
        <dc:format>image/svg+xml</dc:format>
        <dc:type
           rdf:resource="http://purl.org/dc/dcmitype/StillImage" />
        <dc:title></dc:title>
      </cc:Work>
    </rdf:RDF>
  </metadata>
  <g
     inkscape:label="Layer 2"
     id="layer2"
     inkscape:groupmode="layer"
     transform="translate(0,-1042.0165)" />
  <g
     inkscape:label="Layer 3"
     id="layer3"
     inkscape:groupmode="layer"
     transform="translate(0,-1042.0165)" />
  <g
     style="opacity:1"
     id="layer1"
     inkscape:groupmode="layer"
     inkscape:label="Layer 1"
     transform="translate(0,-1042.0165)">
    <g
       id="g1381"
       transform="matrix(0.02084718,0,0,0.02084718,2.1956575,1039.6135)">
      <path
         inkscape:connector-curvature="0"
         id="circle865"
         style="fill:#fffb00;fill-opacity:1;stroke:none;stroke-width:0.417106;stroke-linecap:round;paint-order:stroke fill markers"
         d="M 742.30474,240.5176 A 266.09717,266.09717 0 0 0 529.25667,348.04912 266.09717,266.09717 0 0 1 581.66121,506.61422 266.09717,266.09717 0 0 1 529.25667,665.1793 266.09717,266.09717 0 0 0 742.94874,772.71087 266.09717,266.09717 0 0 0 1009.0466,506.61422 266.09717,266.09717 0 0 0 742.94874,240.5176 a 266.09717,266.09717 0 0 0 -0.644,0 z M 622.03186,409.50774 h 52.99979 v 39.33023 h 34.58912 v 39.61079 H 675.03165 V 538.659 c 0,11.15782 6.41507,17.29458 15.89921,17.29458 5.85782,0 11.71659,-1.67392 16.17973,-4.74233 l 13.10968,37.10058 c -9.20523,5.85786 -22.87277,8.64667 -36.82004,8.64667 -38.77344,0 -61.36837,-18.96866 -61.36837,-57.74208 v -50.76766 h -22.03687 v -39.61079 h 22.03687 z m 95.81724,33.7524 h 54.39517 l 37.09932,92.33003 37.37865,-92.33003 h 50.4896 l -65.27393,157.32463 c -15.89991,39.05236 -38.21506,50.48957 -68.06223,50.48957 -15.8999,0 -33.75242,-5.29996 -43.79448,-13.66833 l 18.41064,-37.10056 c 6.1368,5.57892 15.06269,8.92721 23.43102,8.92721 10.32096,0 16.17842,-3.90532 20.64156,-12.83157 z" />
      <path
         inkscape:connector-curvature="0"
         id="path833"
         style="fill:#ff9400;fill-opacity:1;stroke:none;stroke-width:0.417106;stroke-linecap:round;paint-order:stroke fill markers"
         d="M 314.92058,240.5176 A 266.09717,266.09717 0 0 0 49.466748,506.61422 266.09717,266.09717 0 0 0 315.56459,772.71087 266.09717,266.09717 0 0 0 581.66121,506.61422 266.09717,266.09717 0 0 0 315.56459,240.5176 a 266.09717,266.09717 0 0 0 -0.64401,0 z M 162.5139,406.32668 h 54.11583 l 74.1987,88.70496 v -88.70496 h 64.15787 v 195.26194 h -54.11582 l -74.19871,-88.70499 v 88.70499 H 162.5139 Z m 221.95332,42.6784 h 63.0406 v 73.36319 c 0,21.75768 7.53243,29.01009 19.806,29.01009 10.87882,0 21.47826,-8.08908 21.47826,-30.68357 v -71.68971 h 63.04181 v 152.58354 h -59.97297 v -14.50505 c -11.43674,11.71568 -26.77934,17.29456 -43.23704,17.29456 -36.54172,0 -64.15666,-21.47896 -64.15666,-71.13109 z" />
      <path
         inkscape:connector-curvature="0"
         sodipodi:nodetypes="ccccccccccc"
         id="path925"
         style="font-style:normal;font-variant:normal;font-weight:900;font-stretch:normal;font-size:112.93199921px;line-height:1.25;font-family:Montserrat;-inkscape-font-specification:'Montserrat, Heavy';font-variant-ligatures:normal;font-variant-caps:normal;font-variant-numeric:normal;fill:#fffb00;fill-opacity:1;stroke-width:1.37009001"
         d="m 295.74235,410.44819 -1.25604,96.46631 -80.83754,-96.6621 -46.69517,-0.0984 -0.17192,187.01119 55.74553,0.13051 0.59547,-93.92348 81.29342,93.8076 45.54407,-0.14949 0.68987,-186.16791 z" />
      <path
         inkscape:connector-curvature="0"
         sodipodi:nodetypes="cscsccscccccc"
         id="path927"
         style="font-style:normal;font-variant:normal;font-weight:900;font-stretch:normal;font-size:112.93199921px;line-height:1.25;font-family:Montserrat;-inkscape-font-specification:'Montserrat, Heavy';font-variant-ligatures:normal;font-variant-caps:normal;font-variant-numeric:normal;fill:#fffb00;fill-opacity:1;stroke-width:1.37009001"
         d="m 493.37167,453.72806 -0.16548,69.43518 c -0.0508,21.27335 -11.52723,33.11035 -25.71453,32.77579 -13.95883,0 -24.52626,-9.73997 -24.34747,-32.40444 l 0.0837,-69.98051 -53.89201,-0.0469 -0.0812,77.81579 c -0.0514,49.33939 27.88605,67.85899 58.09181,67.86405 20.537,0 38.70603,-11.39019 49.63483,-22.58553 l 0.13335,20.29663 49.71763,-0.17726 0.3043,-142.80989 z" />
      <path
         inkscape:connector-curvature="0"
         sodipodi:nodetypes="ccsccccccccccsccc"
         id="path969"
         style="font-style:normal;font-variant:normal;font-weight:800;font-stretch:normal;font-size:118.18099976px;line-height:1.25;font-family:Montserrat;-inkscape-font-specification:'Montserrat, Ultra-Bold';font-variant-ligatures:normal;font-variant-caps:normal;font-variant-numeric:normal;fill:#ff9400;fill-opacity:1;stroke-width:0.624502"
         d="m 704.96338,556.67697 c -4.46313,3.06839 -12.58708,3.82537 -16.8056,3.27894 -8.78157,-1.24902 -17.62316,-7.90567 -17.30717,-20.93228 l -0.56207,-54.64079 35.0776,0.19071 0.0569,-31.64012 -34.79816,-0.32782 0.15182,-39.52652 -44.34483,-0.0323 -0.15481,39.35363 -22.51845,0.15598 0.3304,31.8597 22.39467,-0.17608 0.0659,58.30335 c 0.0266,23.72944 14.68157,49.689 57.19949,50.06595 13.94715,0.0509 22.08216,-0.50115 31.28736,-6.35901 z" />
      <path
         inkscape:connector-curvature="0"
         sodipodi:nodetypes="ccccccccsccc"
         id="path971"
         style="font-style:normal;font-variant:normal;font-weight:800;font-stretch:normal;font-size:118.18099976px;line-height:1.25;font-family:Montserrat;-inkscape-font-specification:'Montserrat, Ultra-Bold';font-variant-ligatures:normal;font-variant-caps:normal;font-variant-numeric:normal;fill:#ff9400;fill-opacity:1;stroke-width:0.624502"
         d="M 850.55853,446.97872 809.33247,546.9989 768.576,447.05676 l -44.28974,0.39487 63.09836,149.36176 c -5.40941,10.34563 -13.5872,16.90179 -25.18628,17.12042 -8.739,0 -17.22191,-2.93094 -22.09705,-7.40585 l -13.90755,29.35479 c 8.09046,6.96324 23.35355,11.41408 39.25096,11.69415 23.13987,0.40767 50.06289,-14.61005 62.52709,-49.17955 l 63.68607,-151.28033 z" />
    </g>
  </g>
</svg>
